<svg xmlns="http://www.w3.org/2000/svg" width="760" height="700" viewBox="0 0 760 700"><defs><marker id="arr_red" markerUnits="userSpaceOnUse" markerWidth="15" markerHeight="12" refX="11" refY="6" orient="auto"><path d="M0,0 L15,6 L0,12 z" fill="#c62828"/></marker><marker id="arr_blue" markerUnits="userSpaceOnUse" markerWidth="15" markerHeight="12" refX="11" refY="6" orient="auto"><path d="M0,0 L15,6 L0,12 z" fill="#1565c0"/></marker></defs><rect width="760" height="700" fill="#ffffff"/><text x="18" y="26" font-size="17" fill="#333333" text-anchor="start" font-weight="bold" font-family="sans-serif">DC-DC 効率測定のつなぎ方（J2 = 入力側 / J3 = 出力側）</text><text x="18" y="688" font-size="12" fill="#555" text-anchor="start" font-weight="normal" font-family="sans-serif">赤 = ＋側の線　青 = −側の線　⌒ = 交差（接続しない）　端子台の VBus には何も繋がない</text><rect x="64" y="210" width="552" height="420" rx="6" fill="#dde7d6" stroke="#5a6b5a" stroke-width="2"/><circle cx="88" cy="606" r="9" fill="#ffffff" stroke="#8a958a" stroke-width="1.5"/><circle cx="592" cy="606" r="9" fill="#ffffff" stroke="#8a958a" stroke-width="1.5"/><circle cx="88" cy="234" r="9" fill="#ffffff" stroke="#8a958a" stroke-width="1.5"/><circle cx="592" cy="234" r="9" fill="#ffffff" stroke="#8a958a" stroke-width="1.5"/><rect x="70" y="456" width="306" height="126" rx="4" fill="#faf8f1" stroke="#9aa3ad" stroke-width="1.5"/><text x="223" y="527" font-size="15" fill="#333333" text-anchor="middle" font-weight="bold" font-family="sans-serif">Pico 2</text><rect x="52" y="495" width="54" height="48" fill="#c9c9c9" stroke="#8a8a8a"/><text x="78" y="531" font-size="10" fill="#666" text-anchor="middle" font-weight="normal" font-family="sans-serif">USB</text><path d="M 49,519 L 25,519" fill="none" stroke="#777777" stroke-width="4.5" stroke-linejoin="round" stroke-linecap="round"/><text x="37" y="501" font-size="11" fill="#555" text-anchor="middle" font-weight="normal" font-family="sans-serif">PCへ</text><rect x="120" y="223" width="152" height="122" rx="4" fill="#faf8f1" stroke="#9aa3ad" stroke-width="1.5"/><rect x="164" y="225" width="63" height="42" rx="3" fill="#3a7d44"/><circle cx="175" cy="247" r="7" fill="#e8e8e8" stroke="#333333" stroke-width="1.4"/><line x1="171" y1="247" x2="179" y2="247" stroke="#333333" stroke-width="1.4"/><circle cx="196" cy="247" r="7" fill="#e8e8e8" stroke="#333333" stroke-width="1.4"/><line x1="192" y1="247" x2="200" y2="247" stroke="#333333" stroke-width="1.4"/><circle cx="217" cy="247" r="7" fill="#e8e8e8" stroke="#333333" stroke-width="1.4"/><line x1="213" y1="247" x2="221" y2="247" stroke="#333333" stroke-width="1.4"/><text x="175" y="280" font-size="12" fill="#333333" text-anchor="middle" font-weight="bold" font-family="sans-serif">VIN−</text><text x="217" y="280" font-size="12" fill="#333333" text-anchor="middle" font-weight="bold" font-family="sans-serif">VIN+</text><text x="196" y="295" font-size="10" fill="#999" text-anchor="middle" font-weight="normal" font-family="sans-serif">VBus(空き)</text><text x="196" y="322" font-size="12" fill="#8a8a8a" text-anchor="middle" font-weight="normal" font-family="sans-serif">INA228</text><circle cx="143" cy="330" r="3" fill="#8b8b83"/><circle cx="158" cy="330" r="3" fill="#8b8b83"/><circle cx="173" cy="330" r="3" fill="#8b8b83"/><circle cx="188" cy="330" r="3" fill="#8b8b83"/><circle cx="204" cy="330" r="3" fill="#8b8b83"/><circle cx="219" cy="330" r="3" fill="#8b8b83"/><circle cx="234" cy="330" r="3" fill="#8b8b83"/><circle cx="249" cy="330" r="3" fill="#8b8b83"/><rect x="108" y="352" width="176" height="26" rx="13" fill="#b26a00"/><text x="196" y="370" font-size="13" fill="#ffffff" text-anchor="middle" font-weight="bold" font-family="sans-serif">J2 = ch0 0x40 入力</text><text x="196" y="396" font-size="11" fill="#555" text-anchor="middle" font-weight="normal" font-family="sans-serif">A0 は開けたまま</text><rect x="300" y="223" width="152" height="122" rx="4" fill="#faf8f1" stroke="#9aa3ad" stroke-width="1.5"/><rect x="344" y="225" width="63" height="42" rx="3" fill="#3a7d44"/><circle cx="355" cy="247" r="7" fill="#e8e8e8" stroke="#333333" stroke-width="1.4"/><line x1="351" y1="247" x2="359" y2="247" stroke="#333333" stroke-width="1.4"/><circle cx="376" cy="247" r="7" fill="#e8e8e8" stroke="#333333" stroke-width="1.4"/><line x1="372" y1="247" x2="380" y2="247" stroke="#333333" stroke-width="1.4"/><circle cx="397" cy="247" r="7" fill="#e8e8e8" stroke="#333333" stroke-width="1.4"/><line x1="393" y1="247" x2="401" y2="247" stroke="#333333" stroke-width="1.4"/><text x="355" y="280" font-size="12" fill="#333333" text-anchor="middle" font-weight="bold" font-family="sans-serif">VIN−</text><text x="397" y="280" font-size="12" fill="#333333" text-anchor="middle" font-weight="bold" font-family="sans-serif">VIN+</text><text x="376" y="295" font-size="10" fill="#999" text-anchor="middle" font-weight="normal" font-family="sans-serif">VBus(空き)</text><text x="376" y="322" font-size="12" fill="#8a8a8a" text-anchor="middle" font-weight="normal" font-family="sans-serif">INA228</text><circle cx="323" cy="330" r="3" fill="#8b8b83"/><circle cx="338" cy="330" r="3" fill="#8b8b83"/><circle cx="353" cy="330" r="3" fill="#8b8b83"/><circle cx="368" cy="330" r="3" fill="#8b8b83"/><circle cx="384" cy="330" r="3" fill="#8b8b83"/><circle cx="399" cy="330" r="3" fill="#8b8b83"/><circle cx="414" cy="330" r="3" fill="#8b8b83"/><circle cx="429" cy="330" r="3" fill="#8b8b83"/><rect x="288" y="352" width="176" height="26" rx="13" fill="#00796b"/><text x="376" y="370" font-size="13" fill="#ffffff" text-anchor="middle" font-weight="bold" font-family="sans-serif">J3 = ch1 0x41 出力</text><text x="376" y="396" font-size="11" fill="#555" text-anchor="middle" font-weight="normal" font-family="sans-serif">裏の A0 を閉じた方</text><rect x="486" y="217" width="71" height="67" rx="3" fill="#3a7d44"/><circle cx="508" cy="240" r="7" fill="#e8e8e8" stroke="#333333" stroke-width="1.4"/><line x1="504" y1="240" x2="512" y2="240" stroke="#333333" stroke-width="1.4"/><circle cx="538" cy="240" r="7" fill="#e8e8e8" stroke="#333333" stroke-width="1.4"/><line x1="534" y1="240" x2="542" y2="240" stroke="#333333" stroke-width="1.4"/><text x="523" y="296" font-size="12" fill="#333333" text-anchor="middle" font-weight="bold" font-family="sans-serif">J5  GND</text><rect x="415" y="435" width="150" height="162" rx="3" fill="#2b2b33"/><rect x="429" y="471" width="122" height="66" fill="#10131f"/><text x="490" y="579" font-size="12" fill="#cccccc" text-anchor="middle" font-weight="normal" font-family="sans-serif">OLED</text><circle cx="538" cy="360" r="14" fill="#d7dde8" stroke="#8a95a5"/><text x="515" y="344" font-size="15" fill="#333333" text-anchor="middle" font-weight="bold" font-family="sans-serif">+</text><text x="538" y="383" font-size="10" fill="#777" text-anchor="middle" font-weight="normal" font-family="sans-serif">C1</text><circle cx="574" cy="393" r="7" fill="#ffffff" stroke="#333333" stroke-width="1.5"/><text x="574" y="419" font-size="10" fill="#777" text-anchor="middle" font-weight="normal" font-family="sans-serif">TP1</text><rect x="60" y="40" width="130" height="110" rx="8" fill="#f2f2f2" stroke="#666" stroke-width="1.8"/><text x="125" y="78" font-size="14" fill="#333333" text-anchor="middle" font-weight="bold" font-family="sans-serif">安定化電源</text><circle cx="85" cy="150" r="7" fill="#1565c0"/><text x="85" y="138" font-size="13" fill="#1565c0" text-anchor="middle" font-weight="bold" font-family="sans-serif">−</text><circle cx="165" cy="150" r="7" fill="#c62828"/><text x="165" y="138" font-size="13" fill="#c62828" text-anchor="middle" font-weight="bold" font-family="sans-serif">＋</text><rect x="250" y="40" width="180" height="110" rx="8" fill="#f2f2f2" stroke="#666" stroke-width="1.8"/><text x="340" y="78" font-size="14" fill="#333333" text-anchor="middle" font-weight="bold" font-family="sans-serif">DC-DC (DUT)</text><circle cx="270" cy="150" r="7" fill="#1565c0"/><text x="270" y="138" font-size="13" fill="#1565c0" text-anchor="middle" font-weight="bold" font-family="sans-serif">−</text><circle cx="305" cy="150" r="7" fill="#c62828"/><text x="305" y="138" font-size="13" fill="#c62828" text-anchor="middle" font-weight="bold" font-family="sans-serif">＋</text><circle cx="360" cy="150" r="7" fill="#c62828"/><text x="360" y="138" font-size="13" fill="#c62828" text-anchor="middle" font-weight="bold" font-family="sans-serif">＋</text><circle cx="400" cy="150" r="7" fill="#1565c0"/><text x="400" y="138" font-size="13" fill="#1565c0" text-anchor="middle" font-weight="bold" font-family="sans-serif">−</text><text x="287" y="122" font-size="11" fill="#666" text-anchor="middle" font-weight="normal" font-family="sans-serif">入力</text><text x="380" y="122" font-size="11" fill="#666" text-anchor="middle" font-weight="normal" font-family="sans-serif">出力</text><rect x="500" y="40" width="140" height="110" rx="8" fill="#f2f2f2" stroke="#666" stroke-width="1.8"/><text x="570" y="78" font-size="14" fill="#333333" text-anchor="middle" font-weight="bold" font-family="sans-serif">電子負荷</text><circle cx="525" cy="150" r="7" fill="#c62828"/><text x="525" y="138" font-size="13" fill="#c62828" text-anchor="middle" font-weight="bold" font-family="sans-serif">＋</text><circle cx="605" cy="150" r="7" fill="#1565c0"/><text x="605" y="138" font-size="13" fill="#1565c0" text-anchor="middle" font-weight="bold" font-family="sans-serif">−</text><path d="M 165,150 L 165,175 L 217,175 L 217,238" fill="none" stroke="#c62828" stroke-width="4.5" stroke-linejoin="round" stroke-linecap="round" marker-end="url(#arr_red)"/><path d="M 175,238 L 175,210 L 210,210 A 7 7 0 0 1 224,210 L 305,210 L 305,159" fill="none" stroke="#c62828" stroke-width="4.5" stroke-linejoin="round" stroke-linecap="round" marker-end="url(#arr_red)"/><path d="M 270,150 L 270,185 L 224,185 A 7 7 0 0 0 210,185 L 85,185 L 85,159" fill="none" stroke="#1565c0" stroke-width="4.5" stroke-linejoin="round" stroke-linecap="round" marker-end="url(#arr_blue)"/><path d="M 85,185 L 40,185 L 40,655 L 700,655 L 700,200 L 538,200 L 538,231" fill="none" stroke="#1565c0" stroke-width="4.5" stroke-linejoin="round" stroke-linecap="round" marker-end="url(#arr_blue)"/><path d="M 360,150 L 360,190 L 397,190 L 397,238" fill="none" stroke="#c62828" stroke-width="4.5" stroke-linejoin="round" stroke-linecap="round" marker-end="url(#arr_red)"/><path d="M 355,238 L 355,215 L 390,215 A 7 7 0 0 1 404,215 L 525,215 L 525,159" fill="none" stroke="#c62828" stroke-width="4.5" stroke-linejoin="round" stroke-linecap="round" marker-end="url(#arr_red)"/><path d="M 605,150 L 605,195 L 532,195 A 7 7 0 0 0 518,195 L 400,195 L 400,159" fill="none" stroke="#1565c0" stroke-width="4.5" stroke-linejoin="round" stroke-linecap="round" marker-end="url(#arr_blue)"/><circle cx="85" cy="185" r="5" fill="#1565c0"/><rect x="169" y="168" width="46" height="17" rx="3" fill="#ffffff" fill-opacity="0.9"/><text x="192" y="179" font-size="12" fill="#c62828" text-anchor="middle" font-weight="bold" font-family="sans-serif">電源＋</text><rect x="206" y="203" width="88" height="17" rx="3" fill="#ffffff" fill-opacity="0.9"/><text x="250" y="214" font-size="12" fill="#c62828" text-anchor="middle" font-weight="bold" font-family="sans-serif">DCDC 入力＋へ</text><rect x="111" y="178" width="58" height="17" rx="3" fill="#ffffff" fill-opacity="0.9"/><text x="140" y="189" font-size="12" fill="#1565c0" text-anchor="middle" font-weight="bold" font-family="sans-serif">電源−へ</text><rect x="296" y="648" width="148" height="17" rx="3" fill="#ffffff" fill-opacity="0.9"/><text x="370" y="659" font-size="12" fill="#1565c0" text-anchor="middle" font-weight="bold" font-family="sans-serif">基準 GND（遠回りで OK）</text><rect x="394" y="183" width="76" height="17" rx="3" fill="#ffffff" fill-opacity="0.9"/><text x="432" y="194" font-size="12" fill="#c62828" text-anchor="middle" font-weight="bold" font-family="sans-serif">DCDC 出力＋</text><rect x="427" y="208" width="70" height="17" rx="3" fill="#ffffff" fill-opacity="0.9"/><text x="462" y="219" font-size="12" fill="#c62828" text-anchor="middle" font-weight="bold" font-family="sans-serif">負荷の＋へ</text><rect x="528" y="188" width="58" height="17" rx="3" fill="#ffffff" fill-opacity="0.9"/><text x="557" y="199" font-size="12" fill="#1565c0" text-anchor="middle" font-weight="bold" font-family="sans-serif">負荷の−</text></svg>